<svg version="1.1" id="Layer_1" xmlns="http://www.w3.org/2000/svg" xmlns:xlink="http://www.w3.org/1999/xlink" x="0px" y="0px"
	 width="100%" viewBox="0 0 580 593" enable-background="new 0 0 580 593" xml:space="preserve">
<path fill="#FFFFFF" opacity="1.000000" stroke="none" 
	d="
M317.000000,594.000000 
	C211.333328,594.000000 106.166664,594.000000 1.000000,594.000000 
	C1.000000,396.333344 1.000000,198.666672 1.000000,1.000000 
	C194.333328,1.000000 387.666656,1.000000 581.000000,1.000000 
	C581.000000,198.666672 581.000000,396.333344 581.000000,594.000000 
	C493.166656,594.000000 405.333344,594.000000 317.000000,594.000000 
M171.783920,376.499390 
	C171.781097,390.326416 171.726196,404.153656 171.793137,417.980347 
	C171.840424,427.745819 177.334167,433.913574 187.063248,435.012329 
	C191.520432,435.515717 196.031540,435.748047 200.518417,435.751068 
	C267.654602,435.795990 334.790771,435.783844 401.926971,435.779449 
	C409.433380,435.778961 410.255066,434.960327 410.255310,427.520233 
	C410.258270,341.226074 410.258118,254.931931 410.255737,168.637772 
	C410.255524,160.974167 409.478790,160.219696 401.594635,160.219391 
	C335.458008,160.216812 269.319763,160.473053 203.185715,160.058548 
	C183.945709,159.937958 171.387054,172.918365 171.564621,191.584961 
	C172.147812,252.884903 171.783920,314.193848 171.783920,376.499390 
M575.001160,308.244080 
	C574.993164,297.353485 570.024475,289.423798 560.926575,285.781921 
	C552.401428,282.369324 543.014832,284.309265 536.595642,290.810486 
	C530.046753,297.443115 528.262817,307.141754 532.021667,315.678375 
	C535.937927,324.572571 545.145874,329.898102 555.005066,328.971039 
	C565.117126,328.020142 572.490112,320.681366 575.001160,308.244080 
M33.800343,328.696503 
	C35.065342,328.302551 36.360355,327.985077 37.590530,327.502380 
	C46.393379,324.048462 52.144890,315.461090 51.939884,306.139435 
	C51.735073,296.826599 45.545956,288.332886 36.772789,285.324646 
	C27.666695,282.202240 17.600241,285.069031 11.743418,292.779327 
	C6.122218,300.179413 5.132891,308.412231 9.399991,316.652618 
	C14.267165,326.051880 22.438900,329.937195 33.800343,328.696503 
M432.374329,547.851562 
	C432.152435,546.879211 431.948730,545.902222 431.705475,544.935242 
	C430.494568,540.121521 427.150635,534.468872 428.633820,530.727600 
	C430.216980,526.734131 436.488586,524.711670 440.458710,521.512634 
	C443.109619,519.376587 444.923553,519.924011 447.290649,521.930847 
	C451.575348,525.563416 456.135529,528.871094 460.700439,532.407166 
	C463.044586,530.776489 465.138824,529.319702 467.512634,527.668396 
	C450.789124,514.931152 434.540344,502.555542 418.148041,490.070587 
	C415.971130,491.533569 413.955994,492.887817 411.977020,494.217743 
	C417.162170,514.355774 422.245911,534.099854 427.787811,555.623413 
	C429.901581,552.579102 431.288940,550.580994 432.374329,547.851562 
M20.058990,383.351044 
	C20.325445,387.784180 22.311939,389.763611 27.069424,389.185303 
	C31.180281,388.685638 35.405933,389.204224 39.550354,388.881317 
	C42.401241,388.659241 43.726486,389.592529 44.520969,392.319702 
	C45.948368,397.219391 49.815399,402.539581 48.765785,406.701080 
	C47.781155,410.604950 41.797703,413.290009 37.937122,416.416534 
	C32.413857,420.889587 32.384010,420.852722 36.498692,427.715759 
	C50.857384,416.068817 65.201012,404.434937 79.543579,392.799744 
	C84.884445,388.467072 84.883308,388.465668 81.758453,382.929352 
	C61.131741,382.929352 40.977242,382.929352 20.058990,383.351044 
M418.321259,82.847519 
	C414.235657,85.955803 410.150055,89.064087 405.818909,92.359184 
	C407.946198,93.720161 409.713959,94.851112 411.500641,95.994171 
	C416.287476,92.305733 420.805115,88.631012 425.563110,85.299515 
	C426.701843,84.502182 429.047638,84.150467 430.141205,84.788513 
	C434.843262,87.531898 439.285553,90.720505 443.962830,93.840584 
	C442.643250,98.682434 441.372620,103.299004 440.127838,107.922523 
	C438.219604,115.010338 438.227173,115.012375 445.563538,117.982399 
	C450.637573,98.422791 455.701569,78.901840 460.813385,59.196583 
	C458.695251,57.815990 456.772644,56.562847 454.713776,55.220890 
	C442.679626,64.342842 430.776062,73.365829 418.321259,82.847519 
M64.336975,206.967682 
	C66.456284,206.967682 68.575600,206.967682 70.572395,206.967682 
	C71.537628,204.225723 72.345337,201.931244 73.562225,198.474396 
	C53.692516,198.474396 34.728489,198.525085 15.765374,198.416214 
	C13.117491,198.401031 11.659573,198.828201 10.599186,201.647018 
	C9.481314,204.618637 10.225730,206.184372 12.498750,207.882309 
	C15.829163,210.370102 18.995495,213.077805 22.227526,215.697021 
	C33.693253,224.988724 45.157192,234.282639 56.719154,243.654633 
	C59.542194,239.893616 59.736607,237.194092 55.609570,234.465286 
	C51.196590,231.547394 47.256542,227.914230 43.042778,224.539398 
	C43.685959,222.788834 44.245831,221.248917 44.817120,219.713242 
	C46.372982,215.530930 46.793045,209.609055 49.800308,207.639236 
	C53.071327,205.496658 58.747528,207.026047 64.336975,206.967682 
M499.675232,383.266663 
	C499.102783,384.639252 498.405457,385.974213 497.978546,387.390686 
	C495.481903,395.674347 497.665588,403.270691 503.539429,406.975830 
	C509.694763,410.858551 516.080688,409.892487 523.048767,403.965637 
	C526.088440,401.380219 528.793091,398.270844 532.156738,396.237885 
	C534.799316,394.640686 538.383362,393.234924 541.263733,393.663391 
	C548.763428,394.779053 551.696167,402.553650 547.466370,410.084930 
	C545.368896,413.819641 541.997864,416.839142 539.442871,419.895325 
	C540.659119,421.464935 541.945312,423.124756 543.256531,424.816925 
	C549.033203,420.014740 552.740479,414.619232 554.617126,408.054474 
	C557.033386,399.601898 554.743286,391.936890 548.768616,387.978607 
	C541.666138,383.273132 534.722595,383.816864 527.311340,389.826965 
	C523.827209,392.652466 520.583496,395.774445 517.100891,398.601990 
	C513.664917,401.391663 509.935028,402.015381 506.161591,399.178955 
	C502.332611,396.300842 501.992493,392.272369 503.858002,388.466431 
	C505.699158,384.710175 508.513275,381.430847 511.208557,377.492188 
	C510.622101,376.620636 509.537018,375.008118 507.857452,372.512085 
	C504.986908,376.168030 502.474304,379.368134 499.675232,383.266663 
M541.136292,206.541550 
	C540.928284,208.859436 540.878845,211.204849 540.482117,213.489990 
	C539.356262,219.974503 536.057007,223.456329 530.849609,223.897202 
	C526.200928,224.290771 521.428162,220.709518 519.992676,214.673981 
	C518.995361,210.480682 519.231384,205.994019 518.900208,201.414108 
	C517.172424,201.414108 515.117493,201.414108 513.020691,201.414108 
	C512.060730,209.189713 513.169250,216.274414 517.263855,222.720627 
	C521.756042,229.792847 528.273376,232.704895 535.427612,230.971924 
	C542.752869,229.197525 547.073669,223.945938 548.054932,215.540329 
	C548.575012,211.084106 548.897949,206.601929 549.526611,202.162140 
	C550.155273,197.722336 552.695923,194.817749 557.296692,194.412415 
	C561.772095,194.018158 564.716187,196.741241 565.897583,200.577240 
	C567.125610,204.564850 567.309387,208.874069 568.040039,213.629883 
	C569.197998,213.846924 571.045227,214.193192 572.880066,214.537140 
	C574.922058,204.883209 571.640015,195.134567 564.837646,189.975601 
	C556.696533,183.801376 545.875610,187.101776 542.795105,196.855072 
	C541.905151,199.672668 541.722839,202.713745 541.136292,206.541550 
M150.865875,487.755066 
	C152.125839,488.709381 153.385818,489.663696 154.827682,490.755798 
	C144.278275,505.194550 133.998077,519.264832 123.530060,533.592224 
	C125.700699,535.166565 127.641891,536.574524 129.747559,538.101746 
	C140.341965,523.666260 150.725571,509.518036 161.152161,495.311218 
	C166.188522,498.948547 170.734695,502.231812 175.449631,505.636993 
	C176.602325,503.962311 177.502869,502.653961 178.586472,501.079651 
	C166.965988,492.568237 155.658813,484.286316 144.177322,475.876709 
	C142.938782,477.600677 141.982956,478.931122 140.914505,480.418335 
	C144.148941,482.783264 147.224518,485.032013 150.865875,487.755066 
M117.710320,71.753563 
	C127.481056,85.101913 137.251785,98.450256 147.115158,111.925179 
	C149.453766,110.115204 151.226501,108.743187 153.129379,107.270462 
	C142.740112,93.059616 132.578079,79.159584 122.230064,65.005157 
	C127.075989,61.412251 131.573135,58.077942 136.241547,54.616642 
	C135.040405,53.082340 134.055344,51.824051 132.845352,50.278442 
	C121.398491,58.671944 110.198914,66.884132 98.847008,75.208008 
	C100.083557,76.778534 101.070137,78.031586 102.257416,79.539543 
	C106.065384,76.753082 109.577385,74.005005 113.299576,71.579475 
	C114.282234,70.939125 115.913490,71.294083 117.710320,71.753563 
M282.148590,583.729309 
	C278.839020,584.160217 278.913757,582.039368 279.000366,579.716858 
	C279.452484,567.592957 279.830963,555.466248 280.265259,543.341614 
	C280.417419,539.093628 280.655823,534.848633 280.867859,530.324951 
	C277.628235,530.324951 275.036804,530.324951 273.093567,530.324951 
	C272.468353,549.855530 271.849548,569.186340 271.207001,589.258789 
	C282.072174,589.258789 292.577820,589.258789 303.209656,589.258789 
	C303.209656,587.832886 303.209656,586.259094 303.209656,583.774231 
	C296.309937,583.774231 289.697662,583.774231 282.148590,583.729309 
M271.325287,24.450130 
	C271.835144,37.563133 272.345001,50.676140 272.838409,63.365761 
	C283.577606,63.365761 293.970520,63.365761 304.765594,63.365761 
	C304.536072,61.012978 304.385101,59.465706 304.248474,58.065372 
	C296.039581,58.065372 288.264740,58.065372 280.145996,58.065372 
	C279.493774,40.847042 278.840118,23.590996 278.186279,6.329818 
	C275.328827,6.329818 272.737274,6.329818 270.470825,6.329818 
	C270.749817,12.251639 271.014160,17.861813 271.325287,24.450130 
z"/>
<path fill="#0A0A0A" opacity="1.000000" stroke="none" 
	d="
M171.783936,375.999390 
	C171.783920,314.193848 172.147812,252.884903 171.564621,191.584961 
	C171.387054,172.918365 183.945709,159.937958 203.185715,160.058548 
	C269.319763,160.473053 335.458008,160.216812 401.594635,160.219391 
	C409.478790,160.219696 410.255524,160.974167 410.255737,168.637772 
	C410.258118,254.931931 410.258270,341.226074 410.255310,427.520233 
	C410.255066,434.960327 409.433380,435.778961 401.926971,435.779449 
	C334.790771,435.783844 267.654602,435.795990 200.518417,435.751068 
	C196.031540,435.748047 191.520432,435.515717 187.063248,435.012329 
	C177.334167,433.913574 171.840424,427.745819 171.793137,417.980347 
	C171.726196,404.153656 171.781097,390.326416 171.783936,375.999390 
M401.048309,174.539490 
	C401.048309,172.935150 401.048309,171.330811 401.048309,169.592087 
	C399.258972,169.592087 398.095001,169.592102 396.931061,169.592102 
	C331.936432,169.592087 266.941803,169.582733 201.947189,169.599396 
	C187.837738,169.603012 180.984985,176.591736 180.983902,190.880203 
	C180.979050,255.374863 180.981766,319.869537 180.981750,384.364197 
	C180.981750,386.010773 180.981735,387.657318 180.981735,389.714111 
	C191.305084,385.114441 201.950073,385.093842 212.597183,385.093719 
	C273.592133,385.092957 334.587067,385.093353 395.582031,385.093353 
	C397.339020,385.093353 399.096008,385.093353 401.048309,385.093353 
	C401.048309,314.821655 401.048309,245.179474 401.048309,174.539490 
M320.499756,426.415497 
	C347.242126,426.415497 373.984528,426.415497 400.777222,426.415497 
	C400.777222,415.462830 400.777222,405.056946 400.777222,394.267303 
	C399.707672,394.267303 398.911011,394.267273 398.114319,394.267334 
	C334.988220,394.270355 271.862061,394.224335 208.736221,394.354401 
	C202.617615,394.367004 196.456711,395.191559 190.399582,396.163513 
	C186.397324,396.805725 182.743896,398.682800 181.381149,403.078857 
	C177.177658,416.638611 183.050583,425.216553 197.088226,426.069672 
	C197.919357,426.120178 198.751602,426.185120 199.583435,426.186798 
	C239.555527,426.266968 279.527618,426.340912 320.499756,426.415497 
z"/>
<path fill="#020202" opacity="1.000000" stroke="none" 
	d="
M574.979126,308.677826 
	C572.490112,320.681366 565.117126,328.020142 555.005066,328.971039 
	C545.145874,329.898102 535.937927,324.572571 532.021667,315.678375 
	C528.262817,307.141754 530.046753,297.443115 536.595642,290.810486 
	C543.014832,284.309265 552.401428,282.369324 560.926575,285.781921 
	C570.024475,289.423798 574.993164,297.353485 574.979126,308.677826 
z"/>
<path fill="#020202" opacity="1.000000" stroke="none" 
	d="
M33.380203,328.779419 
	C22.438900,329.937195 14.267165,326.051880 9.399991,316.652618 
	C5.132891,308.412231 6.122218,300.179413 11.743418,292.779327 
	C17.600241,285.069031 27.666695,282.202240 36.772789,285.324646 
	C45.545956,288.332886 51.735073,296.826599 51.939884,306.139435 
	C52.144890,315.461090 46.393379,324.048462 37.590530,327.502380 
	C36.360355,327.985077 35.065342,328.302551 33.380203,328.779419 
z"/>
<path fill="#090909" opacity="1.000000" stroke="none" 
	d="
M432.525299,548.217224 
	C431.288940,550.580994 429.901581,552.579102 427.787811,555.623413 
	C422.245911,534.099854 417.162170,514.355774 411.977020,494.217743 
	C413.955994,492.887817 415.971130,491.533569 418.148041,490.070587 
	C434.540344,502.555542 450.789124,514.931152 467.512634,527.668396 
	C465.138824,529.319702 463.044586,530.776489 460.700439,532.407166 
	C456.135529,528.871094 451.575348,525.563416 447.290649,521.930847 
	C444.923553,519.924011 443.109619,519.376587 440.458710,521.512634 
	C436.488586,524.711670 430.216980,526.734131 428.633820,530.727600 
	C427.150635,534.468872 430.494568,540.121521 431.705475,544.935242 
	C431.948730,545.902222 432.152435,546.879211 432.525299,548.217224 
M420.739929,501.454620 
	C420.607971,501.550354 420.476013,501.646088 420.344086,501.741821 
	C420.550690,501.852295 420.757294,501.962799 420.963898,502.073303 
	C421.069366,501.804413 421.174835,501.535522 420.426910,501.829926 
	C422.306854,509.238129 424.186798,516.646301 426.179321,524.498108 
	C430.915619,521.298279 434.938721,518.580261 439.059448,515.796265 
	C432.836731,510.740509 427.066620,506.052490 420.739929,501.454620 
z"/>
<path fill="#080808" opacity="1.000000" stroke="none" 
	d="
M20.440868,383.140198 
	C40.977242,382.929352 61.131741,382.929352 81.758453,382.929352 
	C84.883308,388.465668 84.884445,388.467072 79.543579,392.799744 
	C65.201012,404.434937 50.857384,416.068817 36.498692,427.715759 
	C32.384010,420.852722 32.413857,420.889587 37.937122,416.416534 
	C41.797703,413.290009 47.781155,410.604950 48.765785,406.701080 
	C49.815399,402.539581 45.948368,397.219391 44.520969,392.319702 
	C43.726486,389.592529 42.401241,388.659241 39.550354,388.881317 
	C35.405933,389.204224 31.180281,388.685638 27.069424,389.185303 
	C22.311939,389.763611 20.325445,387.784180 20.440868,383.140198 
M55.847237,388.503448 
	C53.728458,388.503448 51.609676,388.503448 48.950069,388.503448 
	C50.935368,393.879211 52.614010,398.424591 54.429066,403.339386 
	C60.812893,398.260040 66.685936,393.587097 73.143044,388.449463 
	C67.013397,388.449463 61.902031,388.449463 55.847237,388.503448 
z"/>
<path fill="#080808" opacity="1.000000" stroke="none" 
	d="
M418.596863,82.618164 
	C430.776062,73.365829 442.679626,64.342842 454.713776,55.220890 
	C456.772644,56.562847 458.695251,57.815990 460.813385,59.196583 
	C455.701569,78.901840 450.637573,98.422791 445.563538,117.982399 
	C438.227173,115.012375 438.219604,115.010338 440.127838,107.922523 
	C441.372620,103.299004 442.643250,98.682434 443.962830,93.840584 
	C439.285553,90.720505 434.843262,87.531898 430.141205,84.788513 
	C429.047638,84.150467 426.701843,84.502182 425.563110,85.299515 
	C420.805115,88.631012 416.287476,92.305733 411.500641,95.994171 
	C409.713959,94.851112 407.946198,93.720161 405.818909,92.359184 
	C410.150055,89.064087 414.235657,85.955803 418.596863,82.618164 
M448.823059,76.292564 
	C449.645691,72.968391 450.468323,69.644211 451.576965,65.164169 
	C444.741974,70.413864 438.877899,74.917824 432.643097,79.706551 
	C437.113281,82.652679 441.208069,85.351379 445.480499,88.167168 
	C446.612366,84.098373 447.590515,80.582153 448.823059,76.292564 
z"/>
<path fill="#070707" opacity="1.000000" stroke="none" 
	d="
M63.856026,206.961075 
	C58.747528,207.026047 53.071327,205.496658 49.800308,207.639236 
	C46.793045,209.609055 46.372982,215.530930 44.817120,219.713242 
	C44.245831,221.248917 43.685959,222.788834 43.042778,224.539398 
	C47.256542,227.914230 51.196590,231.547394 55.609570,234.465286 
	C59.736607,237.194092 59.542194,239.893616 56.719154,243.654633 
	C45.157192,234.282639 33.693253,224.988724 22.227526,215.697021 
	C18.995495,213.077805 15.829163,210.370102 12.498750,207.882309 
	C10.225730,206.184372 9.481314,204.618637 10.599186,201.647018 
	C11.659573,198.828201 13.117491,198.401031 15.765374,198.416214 
	C34.728489,198.525085 53.692516,198.474396 73.562225,198.474396 
	C72.345337,201.931244 71.537628,204.225723 70.572395,206.967682 
	C68.575600,206.967682 66.456284,206.967682 63.856026,206.961075 
M25.211340,210.317291 
	C29.576546,213.772888 33.941753,217.228485 38.603222,220.918610 
	C40.391289,215.767700 41.939964,211.306412 43.676956,206.302643 
	C35.542007,206.302643 28.228498,206.302643 20.328417,206.302643 
	C22.119347,207.794373 23.383036,208.846939 25.211340,210.317291 
z"/>
<path fill="#080808" opacity="1.000000" stroke="none" 
	d="
M499.818451,382.917419 
	C502.474304,379.368134 504.986908,376.168030 507.857452,372.512085 
	C509.537018,375.008118 510.622101,376.620636 511.208557,377.492188 
	C508.513275,381.430847 505.699158,384.710175 503.858002,388.466431 
	C501.992493,392.272369 502.332611,396.300842 506.161591,399.178955 
	C509.935028,402.015381 513.664917,401.391663 517.100891,398.601990 
	C520.583496,395.774445 523.827209,392.652466 527.311340,389.826965 
	C534.722595,383.816864 541.666138,383.273132 548.768616,387.978607 
	C554.743286,391.936890 557.033386,399.601898 554.617126,408.054474 
	C552.740479,414.619232 549.033203,420.014740 543.256531,424.816925 
	C541.945312,423.124756 540.659119,421.464935 539.442871,419.895325 
	C541.997864,416.839142 545.368896,413.819641 547.466370,410.084930 
	C551.696167,402.553650 548.763428,394.779053 541.263733,393.663391 
	C538.383362,393.234924 534.799316,394.640686 532.156738,396.237885 
	C528.793091,398.270844 526.088440,401.380219 523.048767,403.965637 
	C516.080688,409.892487 509.694763,410.858551 503.539429,406.975830 
	C497.665588,403.270691 495.481903,395.674347 497.978546,387.390686 
	C498.405457,385.974213 499.102783,384.639252 499.818451,382.917419 
z"/>
<path fill="#080808" opacity="1.000000" stroke="none" 
	d="
M541.176208,206.096954 
	C541.722839,202.713745 541.905151,199.672668 542.795105,196.855072 
	C545.875610,187.101776 556.696533,183.801376 564.837646,189.975601 
	C571.640015,195.134567 574.922058,204.883209 572.880066,214.537140 
	C571.045227,214.193192 569.197998,213.846924 568.040039,213.629883 
	C567.309387,208.874069 567.125610,204.564850 565.897583,200.577240 
	C564.716187,196.741241 561.772095,194.018158 557.296692,194.412415 
	C552.695923,194.817749 550.155273,197.722336 549.526611,202.162140 
	C548.897949,206.601929 548.575012,211.084106 548.054932,215.540329 
	C547.073669,223.945938 542.752869,229.197525 535.427612,230.971924 
	C528.273376,232.704895 521.756042,229.792847 517.263855,222.720627 
	C513.169250,216.274414 512.060730,209.189713 513.020691,201.414108 
	C515.117493,201.414108 517.172424,201.414108 518.900208,201.414108 
	C519.231384,205.994019 518.995361,210.480682 519.992676,214.673981 
	C521.428162,220.709518 526.200928,224.290771 530.849609,223.897202 
	C536.057007,223.456329 539.356262,219.974503 540.482117,213.489990 
	C540.878845,211.204849 540.928284,208.859436 541.176208,206.096954 
z"/>
<path fill="#080808" opacity="1.000000" stroke="none" 
	d="
M150.582977,487.517914 
	C147.224518,485.032013 144.148941,482.783264 140.914505,480.418335 
	C141.982956,478.931122 142.938782,477.600677 144.177322,475.876709 
	C155.658813,484.286316 166.965988,492.568237 178.586472,501.079651 
	C177.502869,502.653961 176.602325,503.962311 175.449631,505.636993 
	C170.734695,502.231812 166.188522,498.948547 161.152161,495.311218 
	C150.725571,509.518036 140.341965,523.666260 129.747559,538.101746 
	C127.641891,536.574524 125.700699,535.166565 123.530060,533.592224 
	C133.998077,519.264832 144.278275,505.194550 154.827682,490.755798 
	C153.385818,489.663696 152.125839,488.709381 150.582977,487.517914 
z"/>
<path fill="#090909" opacity="1.000000" stroke="none" 
	d="
M117.478622,71.472778 
	C115.913490,71.294083 114.282234,70.939125 113.299576,71.579475 
	C109.577385,74.005005 106.065384,76.753082 102.257416,79.539543 
	C101.070137,78.031586 100.083557,76.778534 98.847008,75.208008 
	C110.198914,66.884132 121.398491,58.671944 132.845352,50.278442 
	C134.055344,51.824051 135.040405,53.082340 136.241547,54.616642 
	C131.573135,58.077942 127.075989,61.412251 122.230064,65.005157 
	C132.578079,79.159584 142.740112,93.059616 153.129379,107.270462 
	C151.226501,108.743187 149.453766,110.115204 147.115158,111.925179 
	C137.251785,98.450256 127.481056,85.101913 117.478622,71.472778 
z"/>
<path fill="#090909" opacity="1.000000" stroke="none" 
	d="
M282.616974,583.751770 
	C289.697662,583.774231 296.309937,583.774231 303.209656,583.774231 
	C303.209656,586.259094 303.209656,587.832886 303.209656,589.258789 
	C292.577820,589.258789 282.072174,589.258789 271.207001,589.258789 
	C271.849548,569.186340 272.468353,549.855530 273.093567,530.324951 
	C275.036804,530.324951 277.628235,530.324951 280.867859,530.324951 
	C280.655823,534.848633 280.417419,539.093628 280.265259,543.341614 
	C279.830963,555.466248 279.452484,567.592957 279.000366,579.716858 
	C278.913757,582.039368 278.839020,584.160217 282.616974,583.751770 
z"/>
<path fill="#0B0B0B" opacity="1.000000" stroke="none" 
	d="
M271.301880,23.961060 
	C271.014160,17.861813 270.749817,12.251639 270.470825,6.329818 
	C272.737274,6.329818 275.328827,6.329818 278.186279,6.329818 
	C278.840118,23.590996 279.493774,40.847042 280.145996,58.065372 
	C288.264740,58.065372 296.039581,58.065372 304.248474,58.065372 
	C304.385101,59.465706 304.536072,61.012978 304.765594,63.365761 
	C293.970520,63.365761 283.577606,63.365761 272.838409,63.365761 
	C272.345001,50.676140 271.835144,37.563133 271.301880,23.961060 
z"/>
<path fill="#FEFEFE" opacity="1.000000" stroke="none" 
	d="
M401.048309,175.038391 
	C401.048309,245.179474 401.048309,314.821655 401.048309,385.093353 
	C399.096008,385.093353 397.339020,385.093353 395.582031,385.093353 
	C334.587067,385.093353 273.592133,385.092957 212.597183,385.093719 
	C201.950073,385.093842 191.305084,385.114441 180.981735,389.714111 
	C180.981735,387.657318 180.981750,386.010773 180.981750,384.364197 
	C180.981766,319.869537 180.979050,255.374863 180.983902,190.880203 
	C180.984985,176.591736 187.837738,169.603012 201.947189,169.599396 
	C266.941803,169.582733 331.936432,169.592087 396.931061,169.592102 
	C398.095001,169.592102 399.258972,169.592087 401.048309,169.592087 
	C401.048309,171.330811 401.048309,172.935150 401.048309,175.038391 
M284.116486,357.243622 
	C330.805145,362.106750 370.346344,320.954559 363.841522,274.270447 
	C358.465302,235.686081 325.113525,208.875031 285.143341,211.005997 
	C248.678329,212.950089 218.650558,244.786346 217.709396,282.501251 
	C216.755905,320.710175 246.029022,354.070007 284.116486,357.243622 
z"/>
<path fill="#FCFCFC" opacity="1.000000" stroke="none" 
	d="
M319.999756,426.415527 
	C279.527618,426.340912 239.555527,426.266968 199.583435,426.186798 
	C198.751602,426.185120 197.919357,426.120178 197.088226,426.069672 
	C183.050583,425.216553 177.177658,416.638611 181.381149,403.078857 
	C182.743896,398.682800 186.397324,396.805725 190.399582,396.163513 
	C196.456711,395.191559 202.617615,394.367004 208.736221,394.354401 
	C271.862061,394.224335 334.988220,394.270355 398.114319,394.267334 
	C398.911011,394.267273 399.707672,394.267303 400.777222,394.267303 
	C400.777222,405.056946 400.777222,415.462830 400.777222,426.415497 
	C373.984528,426.415497 347.242126,426.415497 319.999756,426.415527 
z"/>
<path fill="#F4F4F4" opacity="1.000000" stroke="none" 
	d="
M421.296509,501.364502 
	C427.066620,506.052490 432.836731,510.740509 439.059448,515.796265 
	C434.938721,518.580261 430.915619,521.298279 426.179321,524.498108 
	C424.186798,516.646301 422.306854,509.238129 420.836914,501.576477 
	C421.246887,501.323059 421.296509,501.364471 421.296509,501.364502 
z"/>
<path fill="#F4F4F4" opacity="1.000000" stroke="none" 
	d="
M421.263611,501.294861 
	C421.174835,501.535522 421.069366,501.804413 420.963898,502.073303 
	C420.757294,501.962799 420.550690,501.852295 420.344086,501.741821 
	C420.476013,501.646088 420.607971,501.550354 421.018219,501.409546 
	C421.296509,501.364471 421.246887,501.323059 421.263611,501.294861 
z"/>
<path fill="#F0F0F0" opacity="1.000000" stroke="none" 
	d="
M56.318951,388.476440 
	C61.902031,388.449463 67.013397,388.449463 73.143044,388.449463 
	C66.685936,393.587097 60.812893,398.260040 54.429066,403.339386 
	C52.614010,398.424591 50.935368,393.879211 48.950069,388.503448 
	C51.609676,388.503448 53.728458,388.503448 56.318951,388.476440 
z"/>
<path fill="#F4F4F4" opacity="1.000000" stroke="none" 
	d="
M448.695862,76.679245 
	C447.590515,80.582153 446.612366,84.098373 445.480499,88.167168 
	C441.208069,85.351379 437.113281,82.652679 432.643097,79.706551 
	C438.877899,74.917824 444.741974,70.413864 451.576965,65.164169 
	C450.468323,69.644211 449.645691,72.968391 448.695862,76.679245 
z"/>
<path fill="#F4F4F4" opacity="1.000000" stroke="none" 
	d="
M24.929033,210.108398 
	C23.383036,208.846939 22.119347,207.794373 20.328417,206.302643 
	C28.228498,206.302643 35.542007,206.302643 43.676956,206.302643 
	C41.939964,211.306412 40.391289,215.767700 38.603222,220.918610 
	C33.941753,217.228485 29.576546,213.772888 24.929033,210.108398 
z"/>
<path fill="#090909" opacity="1.000000" stroke="none" 
	d="
M283.668640,357.200989 
	C246.029022,354.070007 216.755905,320.710175 217.709396,282.501251 
	C218.650558,244.786346 248.678329,212.950089 285.143341,211.005997 
	C325.113525,208.875031 358.465302,235.686081 363.841522,274.270447 
	C370.346344,320.954559 330.805145,362.106750 283.668640,357.200989 
M315.983521,343.180603 
	C325.094910,339.426666 332.866882,333.902924 339.928619,325.562164 
	C335.666107,325.562164 332.508057,325.849518 329.423309,325.496307 
	C324.521820,324.935028 321.514496,326.213715 320.028625,331.462280 
	C318.924011,335.364014 316.396667,338.862946 314.127686,342.961243 
	C314.158783,343.209137 314.189850,343.457001 314.220947,343.704895 
	C314.568329,343.558014 314.915710,343.411133 315.983521,343.180603 
M267.090118,343.733429 
	C267.306427,343.330200 267.522736,342.926971 267.428314,341.887604 
	C265.196899,337.451996 263.006073,332.995148 260.704956,328.596008 
	C260.141418,327.518707 259.257294,325.825989 258.452026,325.785706 
	C253.316971,325.528748 248.162750,325.654846 241.936050,325.654846 
	C249.675705,333.944153 257.214264,340.011871 267.090118,343.733429 
M340.518738,279.745636 
	C345.282715,279.745636 350.046692,279.745636 355.122589,279.745636 
	C354.398590,268.320923 350.907776,258.461792 345.019379,249.420807 
	C344.473114,248.582047 343.257690,247.692719 342.330322,247.667740 
	C336.441284,247.509186 330.545898,247.587158 324.888214,247.587158 
	C326.431854,258.594635 327.880280,268.922882 329.398010,279.745636 
	C332.617310,279.745636 336.074036,279.745636 340.518738,279.745636 
M227.244522,276.710266 
	C227.867401,277.720947 228.468323,279.594574 229.116501,279.611084 
	C237.045166,279.812897 244.980774,279.742340 252.704071,279.742340 
	C254.241837,268.794128 255.705170,258.375732 257.223236,247.567505 
	C252.054672,247.567505 246.900620,247.286362 241.805710,247.712479 
	C239.895218,247.872269 237.086929,249.256027 236.459488,250.801147 
	C233.117828,259.030090 230.337875,267.487183 227.244522,276.710266 
M315.856934,252.696686 
	C314.681396,250.992416 313.645752,247.958511 312.305725,247.817520 
	C306.933105,247.252258 301.466125,247.583893 296.020508,247.583893 
	C296.020508,258.576996 296.020508,268.969574 296.020508,279.444122 
	C303.925537,279.444122 311.500122,279.444122 320.173370,279.444122 
	C318.730957,270.505524 317.362000,262.022003 315.856934,252.696686 
M280.373779,279.741058 
	C282.275757,279.741058 284.177734,279.741058 285.998627,279.741058 
	C285.998627,268.565247 285.998627,258.177490 285.998627,247.577560 
	C280.485657,247.577560 275.334106,247.449554 270.198639,247.680222 
	C269.107025,247.729263 267.317535,248.933014 267.130676,249.862305 
	C265.183167,259.548859 263.497437,269.288055 261.607422,279.741058 
	C268.492340,279.741058 273.947693,279.741058 280.373779,279.741058 
M351.317810,288.898804 
	C343.872467,288.898804 336.427124,288.898804 329.200684,288.898804 
	C328.004578,298.259644 326.878113,307.075745 325.708893,316.226410 
	C332.115265,316.226410 338.423065,316.289703 344.726746,316.156982 
	C345.654266,316.137451 347.133270,315.384918 347.390991,314.638092 
	C350.027588,306.998230 352.534454,299.310028 354.816711,291.558533 
	C354.989197,290.972717 353.166351,289.799377 351.317810,288.898804 
M253.426193,291.199097 
	C252.635208,290.432617 251.857803,289.017029 251.051132,289.000153 
	C243.098694,288.833771 235.141418,288.899628 225.609344,288.899628 
	C228.633392,297.773163 231.261887,305.741577 234.134720,313.620911 
	C234.533600,314.714905 236.112808,316.073059 237.188736,316.111786 
	C243.649643,316.344452 250.123154,316.227234 256.311554,316.227234 
	C255.349213,307.925781 254.433380,300.025513 253.426193,291.199097 
M286.358276,300.506042 
	C286.358276,296.746918 286.358276,292.987823 286.358276,289.229919 
	C278.118439,289.229919 270.414093,289.229919 262.046173,289.229919 
	C263.334625,298.437653 264.565186,307.231537 265.769745,315.839508 
	C273.185822,315.839508 279.721710,315.839508 286.358276,315.839508 
	C286.358276,310.804901 286.358276,306.153839 286.358276,300.506042 
M295.702179,305.495209 
	C295.702179,308.935760 295.702179,312.376282 295.702179,316.011353 
	C302.576324,316.011353 308.987549,316.011353 316.273621,316.011353 
	C317.478729,307.137726 318.684875,298.256683 319.910675,289.230713 
	C311.252472,289.230713 303.540009,289.230713 295.702179,289.230713 
	C295.702179,294.537415 295.702179,299.516541 295.702179,305.495209 
M295.687988,336.465576 
	C295.687988,339.884613 295.687988,343.303619 295.687988,347.599274 
	C304.800903,342.330811 308.984009,334.658264 312.473053,325.848938 
	C306.537048,325.848938 301.311584,325.848938 295.687988,325.848938 
	C295.687988,329.240479 295.687988,332.358429 295.687988,336.465576 
M283.544250,325.577148 
	C279.035950,325.577148 274.527649,325.577148 269.267395,325.577148 
	C273.316925,334.771698 277.267975,342.559998 286.348572,347.530701 
	C286.348572,340.254944 286.397705,333.835632 286.270111,327.419800 
	C286.257782,326.799805 285.149750,326.201599 283.544250,325.577148 
M307.473694,232.227005 
	C304.496735,227.937790 301.542603,223.623550 295.982452,221.480148 
	C295.982452,227.263992 295.982452,232.589172 295.982452,237.986450 
	C300.811279,237.986450 305.347198,237.986450 310.532501,237.986450 
	C309.499512,235.986084 308.694763,234.427643 307.473694,232.227005 
M275.779877,238.231354 
	C279.198975,238.231354 282.618042,238.231354 285.986084,238.231354 
	C285.986084,232.406937 285.986084,227.118851 285.986084,221.678223 
	C279.683380,224.401443 274.478943,230.518967 272.023712,238.000107 
	C273.004761,238.080093 273.931488,238.155640 275.779877,238.231354 
M265.961670,228.556305 
	C266.545227,227.497375 267.128754,226.438431 267.712311,225.379501 
	C267.359863,224.940048 267.007446,224.500580 266.654999,224.061127 
	C260.007568,228.272629 253.360123,232.484131 246.712677,236.695633 
	C246.919830,237.166870 247.126984,237.638107 247.334137,238.109344 
	C248.252258,238.153503 249.186691,238.102570 250.085968,238.256760 
	C257.806641,239.580475 263.544617,237.543121 265.961670,228.556305 
M314.269775,226.101120 
	C316.034058,229.275223 317.732971,232.488525 319.599976,235.600998 
	C320.208130,236.614807 321.209473,238.058975 322.108765,238.117828 
	C326.234039,238.387756 330.386902,238.236588 335.909851,238.236588 
	C332.715759,235.646027 330.979523,233.761322 328.847931,232.605804 
	C324.044250,230.001724 319.044861,227.758575 314.269775,226.101120 
z"/>
<path fill="#F9F9F9" opacity="1.000000" stroke="none" 
	d="
M340.024750,279.745636 
	C336.074036,279.745636 332.617310,279.745636 329.398010,279.745636 
	C327.880280,268.922882 326.431854,258.594635 324.888214,247.587158 
	C330.545898,247.587158 336.441284,247.509186 342.330322,247.667740 
	C343.257690,247.692719 344.473114,248.582047 345.019379,249.420807 
	C350.907776,258.461792 354.398590,268.320923 355.122589,279.745636 
	C350.046692,279.745636 345.282715,279.745636 340.024750,279.745636 
z"/>
<path fill="#F9F9F9" opacity="1.000000" stroke="none" 
	d="
M227.304031,276.287781 
	C230.337875,267.487183 233.117828,259.030090 236.459488,250.801147 
	C237.086929,249.256027 239.895218,247.872269 241.805710,247.712479 
	C246.900620,247.286362 252.054672,247.567505 257.223236,247.567505 
	C255.705170,258.375732 254.241837,268.794128 252.704071,279.742340 
	C244.980774,279.742340 237.045166,279.812897 229.116501,279.611084 
	C228.468323,279.594574 227.867401,277.720947 227.304031,276.287781 
z"/>
<path fill="#FBFBFB" opacity="1.000000" stroke="none" 
	d="
M315.924988,253.117584 
	C317.362000,262.022003 318.730957,270.505524 320.173370,279.444122 
	C311.500122,279.444122 303.925537,279.444122 296.020508,279.444122 
	C296.020508,268.969574 296.020508,258.576996 296.020508,247.583893 
	C301.466125,247.583893 306.933105,247.252258 312.305725,247.817520 
	C313.645752,247.958511 314.681396,250.992416 315.924988,253.117584 
z"/>
<path fill="#FBFBFB" opacity="1.000000" stroke="none" 
	d="
M279.888428,279.741058 
	C273.947693,279.741058 268.492340,279.741058 261.607422,279.741058 
	C263.497437,269.288055 265.183167,259.548859 267.130676,249.862305 
	C267.317535,248.933014 269.107025,247.729263 270.198639,247.680222 
	C275.334106,247.449554 280.485657,247.577560 285.998627,247.577560 
	C285.998627,258.177490 285.998627,268.565247 285.998627,279.741058 
	C284.177734,279.741058 282.275757,279.741058 279.888428,279.741058 
z"/>
<path fill="#FCFCFC" opacity="1.000000" stroke="none" 
	d="
M351.794403,288.898987 
	C353.166351,289.799377 354.989197,290.972717 354.816711,291.558533 
	C352.534454,299.310028 350.027588,306.998230 347.390991,314.638092 
	C347.133270,315.384918 345.654266,316.137451 344.726746,316.156982 
	C338.423065,316.289703 332.115265,316.226410 325.708893,316.226410 
	C326.878113,307.075745 328.004578,298.259644 329.200684,288.898804 
	C336.427124,288.898804 343.872467,288.898804 351.794403,288.898987 
z"/>
<path fill="#FCFCFC" opacity="1.000000" stroke="none" 
	d="
M253.471878,291.662170 
	C254.433380,300.025513 255.349213,307.925781 256.311554,316.227234 
	C250.123154,316.227234 243.649643,316.344452 237.188736,316.111786 
	C236.112808,316.073059 234.533600,314.714905 234.134720,313.620911 
	C231.261887,305.741577 228.633392,297.773163 225.609344,288.899628 
	C235.141418,288.899628 243.098694,288.833771 251.051132,289.000153 
	C251.857803,289.017029 252.635208,290.432617 253.471878,291.662170 
z"/>
<path fill="#FEFEFE" opacity="1.000000" stroke="none" 
	d="
M286.358276,301.004425 
	C286.358276,306.153839 286.358276,310.804901 286.358276,315.839508 
	C279.721710,315.839508 273.185822,315.839508 265.769745,315.839508 
	C264.565186,307.231537 263.334625,298.437653 262.046173,289.229919 
	C270.414093,289.229919 278.118439,289.229919 286.358276,289.229919 
	C286.358276,292.987823 286.358276,296.746918 286.358276,301.004425 
z"/>
<path fill="#FEFEFE" opacity="1.000000" stroke="none" 
	d="
M295.702179,304.995422 
	C295.702179,299.516541 295.702179,294.537415 295.702179,289.230713 
	C303.540009,289.230713 311.252472,289.230713 319.910675,289.230713 
	C318.684875,298.256683 317.478729,307.137726 316.273621,316.011353 
	C308.987549,316.011353 302.576324,316.011353 295.702179,316.011353 
	C295.702179,312.376282 295.702179,308.935760 295.702179,304.995422 
z"/>
<path fill="#F9F9F9" opacity="1.000000" stroke="none" 
	d="
M295.687988,335.970978 
	C295.687988,332.358429 295.687988,329.240479 295.687988,325.848938 
	C301.311584,325.848938 306.537048,325.848938 312.473053,325.848938 
	C308.984009,334.658264 304.800903,342.330811 295.687988,347.599274 
	C295.687988,343.303619 295.687988,339.884613 295.687988,335.970978 
z"/>
<path fill="#FBFBFB" opacity="1.000000" stroke="none" 
	d="
M284.047302,325.585205 
	C285.149750,326.201599 286.257782,326.799805 286.270111,327.419800 
	C286.397705,333.835632 286.348572,340.254944 286.348572,347.530701 
	C277.267975,342.559998 273.316925,334.771698 269.267395,325.577148 
	C274.527649,325.577148 279.035950,325.577148 284.047302,325.585205 
z"/>
<path fill="#F8F8F8" opacity="1.000000" stroke="none" 
	d="
M266.739838,343.264435 
	C257.214264,340.011871 249.675705,333.944153 241.936050,325.654846 
	C248.162750,325.654846 253.316971,325.528748 258.452026,325.785706 
	C259.257294,325.825989 260.141418,327.518707 260.704956,328.596008 
	C263.006073,332.995148 265.196899,337.451996 267.326233,342.380554 
	C267.062744,343.003815 266.901306,343.134125 266.739838,343.264435 
z"/>
<path fill="#F8F8F8" opacity="1.000000" stroke="none" 
	d="
M314.503052,342.541321 
	C316.396667,338.862946 318.924011,335.364014 320.028625,331.462280 
	C321.514496,326.213715 324.521820,324.935028 329.423309,325.496307 
	C332.508057,325.849518 335.666107,325.562164 339.928619,325.562164 
	C332.866882,333.902924 325.094910,339.426666 315.436127,343.038696 
	C314.760162,342.778290 314.631622,342.659821 314.503052,342.541321 
z"/>
<path fill="#FBFBFB" opacity="1.000000" stroke="none" 
	d="
M307.681854,232.548096 
	C308.694763,234.427643 309.499512,235.986084 310.532501,237.986450 
	C305.347198,237.986450 300.811279,237.986450 295.982452,237.986450 
	C295.982452,232.589172 295.982452,227.263992 295.982452,221.480148 
	C301.542603,223.623550 304.496735,227.937790 307.681854,232.548096 
z"/>
<path fill="#FBFBFB" opacity="1.000000" stroke="none" 
	d="
M275.319031,238.231262 
	C273.931488,238.155640 273.004761,238.080093 272.023712,238.000107 
	C274.478943,230.518967 279.683380,224.401443 285.986084,221.678223 
	C285.986084,227.118851 285.986084,232.406937 285.986084,238.231354 
	C282.618042,238.231354 279.198975,238.231354 275.319031,238.231262 
z"/>
<path fill="#F8F8F8" opacity="1.000000" stroke="none" 
	d="
M265.794067,228.880676 
	C263.544617,237.543121 257.806641,239.580475 250.085968,238.256760 
	C249.186691,238.102570 248.252258,238.153503 247.334137,238.109344 
	C247.126984,237.638107 246.919830,237.166870 246.712677,236.695633 
	C253.360123,232.484131 260.007568,228.272629 266.654999,224.061127 
	C267.007446,224.500580 267.359863,224.940048 267.712311,225.379501 
	C267.128754,226.438431 266.545227,227.497375 265.794067,228.880676 
z"/>
<path fill="#F4F4F4" opacity="1.000000" stroke="none" 
	d="
M314.197449,225.734833 
	C319.044861,227.758575 324.044250,230.001724 328.847931,232.605804 
	C330.979523,233.761322 332.715759,235.646027 335.909851,238.236588 
	C330.386902,238.236588 326.234039,238.387756 322.108765,238.117828 
	C321.209473,238.058975 320.208130,236.614807 319.599976,235.600998 
	C317.732971,232.488525 316.034058,229.275223 314.197449,225.734833 
z"/>
<path fill="#F8F8F8" opacity="1.000000" stroke="none" 
	d="
M315.075928,343.080505 
	C314.915710,343.411133 314.568329,343.558014 314.220947,343.704895 
	C314.189850,343.457001 314.158783,343.209137 314.315369,342.751282 
	C314.631622,342.659821 314.760162,342.778290 315.075928,343.080505 
z"/>
<path fill="#F8F8F8" opacity="1.000000" stroke="none" 
	d="
M267.481598,342.698639 
	C267.522736,342.926971 267.306427,343.330200 266.914978,343.498932 
	C266.901306,343.134125 267.062744,343.003815 267.481598,342.698639 
z"/>
</svg>